<svg xmlns="http://www.w3.org/2000/svg" version="1.1" xmlns:xlink="http://www.w3.org/1999/xlink" xmlns:svgjs="http://svgjs.dev/svgjs" width="1440" height="560" preserveAspectRatio="none" viewBox="0 0 1440 560"><g mask="url(&quot;#SvgjsMask1005&quot;)" fill="none"><rect width="1440" height="560" x="0" y="0" fill="url(&quot;#SvgjsLinearGradient1006&quot;)"></rect><path d="M-74.12 355.08L-74.12 355.08" stroke="#132e65" stroke-width="1.5"></path><path d="M-74.12 355.08L46.74 339.65" stroke="#132e65" stroke-width="1.5"></path><path d="M-74.12 355.08L-69.79 547.05" stroke="#132e65" stroke-width="1.5"></path><path d="M-74.12 355.08L105.48 541.69" stroke="#132e65" stroke-width="1.5"></path><path d="M-69.79 547.05L-69.79 547.05" stroke="#132e65" stroke-width="1.5"></path><path d="M-69.79 547.05L-48.1 640.08" stroke="#132e65" stroke-width="1.5"></path><path d="M-69.79 547.05L105.48 541.69" stroke="#132e65" stroke-width="1.5"></path><path d="M-48.1 640.08L-48.1 640.08" stroke="#132e65" stroke-width="1.5"></path><path d="M-48.1 640.08L64.26 683.89" stroke="#132e65" stroke-width="1.5"></path><path d="M-48.1 640.08L105.48 541.69" stroke="#132e65" stroke-width="1.5"></path><path d="M46.74 339.65L46.74 339.65" stroke="#132e65" stroke-width="1.5"></path><path d="M46.74 339.65L227.54 350.83" stroke="#132e65" stroke-width="1.5"></path><path d="M46.74 339.65L105.48 541.69" stroke="#132e65" stroke-width="1.5"></path><path d="M46.74 339.65L-69.79 547.05" stroke="#132e65" stroke-width="1.5"></path><path d="M105.48 541.69L105.48 541.69" stroke="#132e65" stroke-width="1.5"></path><path d="M105.48 541.69L191.31 541.9" stroke="#132e65" stroke-width="1.5"></path><path d="M105.48 541.69L64.26 683.89" stroke="#132e65" stroke-width="1.5"></path><path d="M105.48 541.69L243.8 643.39" stroke="#132e65" stroke-width="1.5"></path><path d="M64.26 683.89L64.26 683.89" stroke="#132e65" stroke-width="1.5"></path><path d="M64.26 683.89L243.8 643.39" stroke="#132e65" stroke-width="1.5"></path><path d="M227.54 350.83L227.54 350.83" stroke="#132e65" stroke-width="1.5"></path><path d="M227.54 350.83L353.39 363.27" stroke="#132e65" stroke-width="1.5"></path><path d="M227.54 350.83L191.31 541.9" stroke="#132e65" stroke-width="1.5"></path><path d="M191.31 541.9L191.31 541.9" stroke="#132e65" stroke-width="1.5"></path><path d="M191.31 541.9L243.8 643.39" stroke="#132e65" stroke-width="1.5"></path><path d="M191.31 541.9L351.82 509.45" stroke="#132e65" stroke-width="1.5"></path><path d="M243.8 643.39L243.8 643.39" stroke="#132e65" stroke-width="1.5"></path><path d="M243.8 643.39L341.56 682.61" stroke="#132e65" stroke-width="1.5"></path><path d="M353.39 363.27L353.39 363.27" stroke="#132e65" stroke-width="1.5"></path><path d="M353.39 363.27L493.83 347.05" stroke="#132e65" stroke-width="1.5"></path><path d="M351.82 509.45L351.82 509.45" stroke="#132e65" stroke-width="1.5"></path><path d="M351.82 509.45L353.39 363.27" stroke="#132e65" stroke-width="1.5"></path><path d="M351.82 509.45L503.45 507.25" stroke="#132e65" stroke-width="1.5"></path><path d="M341.56 682.61L341.56 682.61" stroke="#132e65" stroke-width="1.5"></path><path d="M341.56 682.61L351.82 509.45" stroke="#132e65" stroke-width="1.5"></path><path d="M341.56 682.61L525.34 687.17" stroke="#132e65" stroke-width="1.5"></path><path d="M341.56 682.61L191.31 541.9" stroke="#132e65" stroke-width="1.5"></path><path d="M341.56 682.61L503.45 507.25" stroke="#132e65" stroke-width="1.5"></path><path d="M493.83 347.05L493.83 347.05" stroke="#132e65" stroke-width="1.5"></path><path d="M493.83 347.05L503.45 507.25" stroke="#132e65" stroke-width="1.5"></path><path d="M493.83 347.05L665.05 373.99" stroke="#132e65" stroke-width="1.5"></path><path d="M493.83 347.05L649.84 226.01" stroke="#132e65" stroke-width="1.5"></path><path d="M493.83 347.05L351.82 509.45" stroke="#132e65" stroke-width="1.5"></path><path d="M503.45 507.25L503.45 507.25" stroke="#132e65" stroke-width="1.5"></path><path d="M525.34 687.17L525.34 687.17" stroke="#132e65" stroke-width="1.5"></path><path d="M525.34 687.17L660.19 658.1" stroke="#132e65" stroke-width="1.5"></path><path d="M649.84 226.01L649.84 226.01" stroke="#132e65" stroke-width="1.5"></path><path d="M649.84 226.01L665.05 373.99" stroke="#132e65" stroke-width="1.5"></path><path d="M649.84 226.01L805.87 206" stroke="#132e65" stroke-width="1.5"></path><path d="M665.05 373.99L665.05 373.99" stroke="#132e65" stroke-width="1.5"></path><path d="M665.05 373.99L805.72 349.58" stroke="#132e65" stroke-width="1.5"></path><path d="M665.05 373.99L691.23 533.27" stroke="#132e65" stroke-width="1.5"></path><path d="M665.05 373.99L503.45 507.25" stroke="#132e65" stroke-width="1.5"></path><path d="M665.05 373.99L805.87 206" stroke="#132e65" stroke-width="1.5"></path><path d="M691.23 533.27L691.23 533.27" stroke="#132e65" stroke-width="1.5"></path><path d="M691.23 533.27L660.19 658.1" stroke="#132e65" stroke-width="1.5"></path><path d="M691.23 533.27L848.32 527.82" stroke="#132e65" stroke-width="1.5"></path><path d="M691.23 533.27L503.45 507.25" stroke="#132e65" stroke-width="1.5"></path><path d="M660.19 658.1L660.19 658.1" stroke="#132e65" stroke-width="1.5"></path><path d="M660.19 658.1L861.23 681.58" stroke="#132e65" stroke-width="1.5"></path><path d="M660.19 658.1L503.45 507.25" stroke="#132e65" stroke-width="1.5"></path><path d="M835.82 99.27L835.82 99.27" stroke="#132e65" stroke-width="1.5"></path><path d="M835.82 99.27L805.87 206" stroke="#132e65" stroke-width="1.5"></path><path d="M835.82 99.27L982.13 86.66" stroke="#132e65" stroke-width="1.5"></path><path d="M835.82 99.27L975.18 200.27" stroke="#132e65" stroke-width="1.5"></path><path d="M805.87 206L805.87 206" stroke="#132e65" stroke-width="1.5"></path><path d="M805.87 206L805.72 349.58" stroke="#132e65" stroke-width="1.5"></path><path d="M805.72 349.58L805.72 349.58" stroke="#132e65" stroke-width="1.5"></path><path d="M848.32 527.82L848.32 527.82" stroke="#132e65" stroke-width="1.5"></path><path d="M848.32 527.82L861.23 681.58" stroke="#132e65" stroke-width="1.5"></path><path d="M848.32 527.82L805.72 349.58" stroke="#132e65" stroke-width="1.5"></path><path d="M848.32 527.82L1010.16 383.48" stroke="#132e65" stroke-width="1.5"></path><path d="M848.32 527.82L999.67 686.96" stroke="#132e65" stroke-width="1.5"></path><path d="M861.23 681.58L861.23 681.58" stroke="#132e65" stroke-width="1.5"></path><path d="M861.23 681.58L999.67 686.96" stroke="#132e65" stroke-width="1.5"></path><path d="M1006.38 -42.31L1006.38 -42.31" stroke="#132e65" stroke-width="1.5"></path><path d="M1006.38 -42.31L982.13 86.66" stroke="#132e65" stroke-width="1.5"></path><path d="M1006.38 -42.31L1152.57 -95.63" stroke="#132e65" stroke-width="1.5"></path><path d="M982.13 86.66L982.13 86.66" stroke="#132e65" stroke-width="1.5"></path><path d="M982.13 86.66L975.18 200.27" stroke="#132e65" stroke-width="1.5"></path><path d="M982.13 86.66L1112.7 75.45" stroke="#132e65" stroke-width="1.5"></path><path d="M975.18 200.27L975.18 200.27" stroke="#132e65" stroke-width="1.5"></path><path d="M975.18 200.27L805.87 206" stroke="#132e65" stroke-width="1.5"></path><path d="M1010.16 383.48L1010.16 383.48" stroke="#132e65" stroke-width="1.5"></path><path d="M1010.16 383.48L1145.8 396.96" stroke="#132e65" stroke-width="1.5"></path><path d="M1010.16 383.48L1099.16 519.23" stroke="#132e65" stroke-width="1.5"></path><path d="M1010.16 383.48L975.18 200.27" stroke="#132e65" stroke-width="1.5"></path><path d="M1010.16 383.48L805.72 349.58" stroke="#132e65" stroke-width="1.5"></path><path d="M999.67 686.96L999.67 686.96" stroke="#132e65" stroke-width="1.5"></path><path d="M999.67 686.96L1128.68 645.37" stroke="#132e65" stroke-width="1.5"></path><path d="M1152.57 -95.63L1152.57 -95.63" stroke="#132e65" stroke-width="1.5"></path><path d="M1152.57 -95.63L1287.89 -101.74" stroke="#132e65" stroke-width="1.5"></path><path d="M1112.7 75.45L1112.7 75.45" stroke="#132e65" stroke-width="1.5"></path><path d="M1112.7 75.45L1006.38 -42.31" stroke="#132e65" stroke-width="1.5"></path><path d="M1112.7 75.45L1152.57 -95.63" stroke="#132e65" stroke-width="1.5"></path><path d="M1112.7 75.45L1293.03 42.03" stroke="#132e65" stroke-width="1.5"></path><path d="M1112.7 75.45L975.18 200.27" stroke="#132e65" stroke-width="1.5"></path><path d="M1112.7 75.45L1295.23 208.09" stroke="#132e65" stroke-width="1.5"></path><path d="M1145.8 396.96L1145.8 396.96" stroke="#132e65" stroke-width="1.5"></path><path d="M1145.8 396.96L1099.16 519.23" stroke="#132e65" stroke-width="1.5"></path><path d="M1145.8 396.96L1282.03 364.84" stroke="#132e65" stroke-width="1.5"></path><path d="M1145.8 396.96L1257.69 551.47" stroke="#132e65" stroke-width="1.5"></path><path d="M1145.8 396.96L1295.23 208.09" stroke="#132e65" stroke-width="1.5"></path><path d="M1099.16 519.23L1099.16 519.23" stroke="#132e65" stroke-width="1.5"></path><path d="M1099.16 519.23L1128.68 645.37" stroke="#132e65" stroke-width="1.5"></path><path d="M1099.16 519.23L1257.69 551.47" stroke="#132e65" stroke-width="1.5"></path><path d="M1128.68 645.37L1128.68 645.37" stroke="#132e65" stroke-width="1.5"></path><path d="M1128.68 645.37L1272.95 688.08" stroke="#132e65" stroke-width="1.5"></path><path d="M1128.68 645.37L1257.69 551.47" stroke="#132e65" stroke-width="1.5"></path><path d="M1287.89 -101.74L1287.89 -101.74" stroke="#132e65" stroke-width="1.5"></path><path d="M1287.89 -101.74L1400.57 -70.7" stroke="#132e65" stroke-width="1.5"></path><path d="M1287.89 -101.74L1293.03 42.03" stroke="#132e65" stroke-width="1.5"></path><path d="M1287.89 -101.74L1418.59 94.09" stroke="#132e65" stroke-width="1.5"></path><path d="M1287.89 -101.74L1112.7 75.45" stroke="#132e65" stroke-width="1.5"></path><path d="M1293.03 42.03L1293.03 42.03" stroke="#132e65" stroke-width="1.5"></path><path d="M1293.03 42.03L1418.59 94.09" stroke="#132e65" stroke-width="1.5"></path><path d="M1295.23 208.09L1295.23 208.09" stroke="#132e65" stroke-width="1.5"></path><path d="M1295.23 208.09L1390.36 244.85" stroke="#132e65" stroke-width="1.5"></path><path d="M1295.23 208.09L1282.03 364.84" stroke="#132e65" stroke-width="1.5"></path><path d="M1295.23 208.09L1293.03 42.03" stroke="#132e65" stroke-width="1.5"></path><path d="M1282.03 364.84L1282.03 364.84" stroke="#132e65" stroke-width="1.5"></path><path d="M1282.03 364.84L1391.3 365.06" stroke="#132e65" stroke-width="1.5"></path><path d="M1282.03 364.84L1390.36 244.85" stroke="#132e65" stroke-width="1.5"></path><path d="M1257.69 551.47L1257.69 551.47" stroke="#132e65" stroke-width="1.5"></path><path d="M1257.69 551.47L1272.95 688.08" stroke="#132e65" stroke-width="1.5"></path><path d="M1257.69 551.47L1398.7 527.22" stroke="#132e65" stroke-width="1.5"></path><path d="M1257.69 551.47L1402.52 646.24" stroke="#132e65" stroke-width="1.5"></path><path d="M1257.69 551.47L1282.03 364.84" stroke="#132e65" stroke-width="1.5"></path><path d="M1272.95 688.08L1272.95 688.08" stroke="#132e65" stroke-width="1.5"></path><path d="M1272.95 688.08L1402.52 646.24" stroke="#132e65" stroke-width="1.5"></path><path d="M1272.95 688.08L1398.7 527.22" stroke="#132e65" stroke-width="1.5"></path><path d="M1400.57 -70.7L1400.57 -70.7" stroke="#132e65" stroke-width="1.5"></path><path d="M1400.57 -70.7L1542.06 -63.73" stroke="#132e65" stroke-width="1.5"></path><path d="M1400.57 -70.7L1293.03 42.03" stroke="#132e65" stroke-width="1.5"></path><path d="M1400.57 -70.7L1418.59 94.09" stroke="#132e65" stroke-width="1.5"></path><path d="M1418.59 94.09L1418.59 94.09" stroke="#132e65" stroke-width="1.5"></path><path d="M1418.59 94.09L1541.14 40.72" stroke="#132e65" stroke-width="1.5"></path><path d="M1418.59 94.09L1390.36 244.85" stroke="#132e65" stroke-width="1.5"></path><path d="M1418.59 94.09L1295.23 208.09" stroke="#132e65" stroke-width="1.5"></path><path d="M1390.36 244.85L1390.36 244.85" stroke="#132e65" stroke-width="1.5"></path><path d="M1390.36 244.85L1391.3 365.06" stroke="#132e65" stroke-width="1.5"></path><path d="M1390.36 244.85L1573.27 202.34" stroke="#132e65" stroke-width="1.5"></path><path d="M1391.3 365.06L1391.3 365.06" stroke="#132e65" stroke-width="1.5"></path><path d="M1398.7 527.22L1398.7 527.22" stroke="#132e65" stroke-width="1.5"></path><path d="M1398.7 527.22L1402.52 646.24" stroke="#132e65" stroke-width="1.5"></path><path d="M1398.7 527.22L1391.3 365.06" stroke="#132e65" stroke-width="1.5"></path><path d="M1398.7 527.22L1282.03 364.84" stroke="#132e65" stroke-width="1.5"></path><path d="M1398.7 527.22L1607.81 491.81" stroke="#132e65" stroke-width="1.5"></path><path d="M1402.52 646.24L1402.52 646.24" stroke="#132e65" stroke-width="1.5"></path><path d="M1402.52 646.24L1568.84 682.62" stroke="#132e65" stroke-width="1.5"></path><path d="M1402.52 646.24L1607.81 491.81" stroke="#132e65" stroke-width="1.5"></path><path d="M1542.06 -63.73L1542.06 -63.73" stroke="#132e65" stroke-width="1.5"></path><path d="M1542.06 -63.73L1541.14 40.72" stroke="#132e65" stroke-width="1.5"></path><path d="M1542.06 -63.73L1418.59 94.09" stroke="#132e65" stroke-width="1.5"></path><path d="M1541.14 40.72L1541.14 40.72" stroke="#132e65" stroke-width="1.5"></path><path d="M1573.27 202.34L1573.27 202.34" stroke="#132e65" stroke-width="1.5"></path><path d="M1573.27 202.34L1541.14 40.72" stroke="#132e65" stroke-width="1.5"></path><path d="M1573.27 202.34L1561.46 389.13" stroke="#132e65" stroke-width="1.5"></path><path d="M1561.46 389.13L1561.46 389.13" stroke="#132e65" stroke-width="1.5"></path><path d="M1561.46 389.13L1607.81 491.81" stroke="#132e65" stroke-width="1.5"></path><path d="M1561.46 389.13L1391.3 365.06" stroke="#132e65" stroke-width="1.5"></path><path d="M1607.81 491.81L1607.81 491.81" stroke="#132e65" stroke-width="1.5"></path><path d="M1607.81 491.81L1568.84 682.62" stroke="#132e65" stroke-width="1.5"></path><path d="M1568.84 682.62L1568.84 682.62" stroke="#132e65" stroke-width="1.5"></path><circle r="5" cx="-74.12" cy="355.08" fill="#132e65"></circle><circle r="5" cx="-69.79" cy="547.05" fill="#132e65"></circle><circle r="5" cx="-48.1" cy="640.08" fill="#132e65"></circle><circle r="5" cx="46.74" cy="339.65" fill="#132e65"></circle><circle r="5" cx="105.48" cy="541.69" fill="#132e65"></circle><circle r="5" cx="64.26" cy="683.89" fill="#132e65"></circle><circle r="5" cx="227.54" cy="350.83" fill="#132e65"></circle><circle r="5" cx="191.31" cy="541.9" fill="#132e65"></circle><circle r="5" cx="243.8" cy="643.39" fill="#132e65"></circle><circle r="5" cx="353.39" cy="363.27" fill="#132e65"></circle><circle r="5" cx="351.82" cy="509.45" fill="#132e65"></circle><circle r="5" cx="341.56" cy="682.61" fill="#132e65"></circle><circle r="5" cx="493.83" cy="347.05" fill="#132e65"></circle><circle r="5" cx="503.45" cy="507.25" fill="#132e65"></circle><circle r="5" cx="525.34" cy="687.17" fill="#132e65"></circle><circle r="5" cx="649.84" cy="226.01" fill="#132e65"></circle><circle r="5" cx="665.05" cy="373.99" fill="#132e65"></circle><circle r="5" cx="691.23" cy="533.27" fill="#132e65"></circle><circle r="5" cx="660.19" cy="658.1" fill="#132e65"></circle><circle r="5" cx="835.82" cy="99.27" fill="#132e65"></circle><circle r="5" cx="805.87" cy="206" fill="#132e65"></circle><circle r="5" cx="805.72" cy="349.58" fill="#132e65"></circle><circle r="5" cx="848.32" cy="527.82" fill="#132e65"></circle><circle r="5" cx="861.23" cy="681.58" fill="#132e65"></circle><circle r="5" cx="1006.38" cy="-42.31" fill="#132e65"></circle><circle r="5" cx="982.13" cy="86.66" fill="#132e65"></circle><circle r="5" cx="975.18" cy="200.27" fill="#132e65"></circle><circle r="5" cx="1010.16" cy="383.48" fill="#132e65"></circle><circle r="5" cx="999.67" cy="686.96" fill="#132e65"></circle><circle r="5" cx="1152.57" cy="-95.63" fill="#132e65"></circle><circle r="5" cx="1112.7" cy="75.45" fill="#132e65"></circle><circle r="5" cx="1145.8" cy="396.96" fill="#132e65"></circle><circle r="5" cx="1099.16" cy="519.23" fill="#132e65"></circle><circle r="5" cx="1128.68" cy="645.37" fill="#132e65"></circle><circle r="5" cx="1287.89" cy="-101.74" fill="#132e65"></circle><circle r="5" cx="1293.03" cy="42.03" fill="#132e65"></circle><circle r="5" cx="1295.23" cy="208.09" fill="#132e65"></circle><circle r="5" cx="1282.03" cy="364.84" fill="#132e65"></circle><circle r="5" cx="1257.69" cy="551.47" fill="#132e65"></circle><circle r="5" cx="1272.95" cy="688.08" fill="#132e65"></circle><circle r="5" cx="1400.57" cy="-70.7" fill="#132e65"></circle><circle r="5" cx="1418.59" cy="94.09" fill="#132e65"></circle><circle r="5" cx="1390.36" cy="244.85" fill="#132e65"></circle><circle r="5" cx="1391.3" cy="365.06" fill="#132e65"></circle><circle r="5" cx="1398.7" cy="527.22" fill="#132e65"></circle><circle r="5" cx="1402.52" cy="646.24" fill="#132e65"></circle><circle r="5" cx="1542.06" cy="-63.73" fill="#132e65"></circle><circle r="5" cx="1541.14" cy="40.72" fill="#132e65"></circle><circle r="5" cx="1573.27" cy="202.34" fill="#132e65"></circle><circle r="5" cx="1561.46" cy="389.13" fill="#132e65"></circle><circle r="5" cx="1607.81" cy="491.81" fill="#132e65"></circle><circle r="5" cx="1568.84" cy="682.62" fill="#132e65"></circle><path d="M514.16 523.69L514.16 523.69" stroke="hsl(228.5, 77.2%, 51.5%)" stroke-width="1.5"></path><path d="M514.16 523.69L401.56 553.86" stroke="hsl(228.5, 77.2%, 51.5%)" stroke-width="1.5"></path><path d="M514.16 523.69L549.71 655.33" stroke="hsl(228.5, 77.2%, 51.5%)" stroke-width="1.5"></path><path d="M514.16 523.69L399.09 637.8" stroke="hsl(228.5, 77.2%, 51.5%)" stroke-width="1.5"></path><path d="M514.16 523.69L698.86 544.48" stroke="hsl(228.5, 77.2%, 51.5%)" stroke-width="1.5"></path><path d="M514.16 523.69L679.62 663.23" stroke="hsl(228.5, 77.2%, 51.5%)" stroke-width="1.5"></path><path d="M514.16 523.69L807.54 553.13" stroke="hsl(228.5, 77.2%, 51.5%)" stroke-width="1.5"></path><path d="M549.71 655.33L549.71 655.33" stroke="hsl(228.5, 77.2%, 51.5%)" stroke-width="1.5"></path><path d="M549.71 655.33L679.62 663.23" stroke="hsl(228.5, 77.2%, 51.5%)" stroke-width="1.5"></path><path d="M549.71 655.33L399.09 637.8" stroke="hsl(228.5, 77.2%, 51.5%)" stroke-width="1.5"></path><path d="M549.71 655.33L401.56 553.86" stroke="hsl(228.5, 77.2%, 51.5%)" stroke-width="1.5"></path><path d="M1155.56 258.99L1155.56 258.99" stroke="hsl(228.5, 77.2%, 51.5%)" stroke-width="1.5"></path><path d="M1155.56 258.99L1247.25 239.52" stroke="hsl(228.5, 77.2%, 51.5%)" stroke-width="1.5"></path><path d="M1155.56 258.99L1144.92 384.92" stroke="hsl(228.5, 77.2%, 51.5%)" stroke-width="1.5"></path><path d="M1415.08 550.35L1415.08 550.35" stroke="hsl(228.5, 77.2%, 51.5%)" stroke-width="1.5"></path><path d="M1415.08 550.35L1459.19 657.51" stroke="hsl(228.5, 77.2%, 51.5%)" stroke-width="1.5"></path><path d="M1415.08 550.35L1272.78 538.09" stroke="hsl(228.5, 77.2%, 51.5%)" stroke-width="1.5"></path><path d="M1415.08 550.35L1579.88 514.69" stroke="hsl(228.5, 77.2%, 51.5%)" stroke-width="1.5"></path><path d="M1415.08 550.35L1287.17 698.07" stroke="hsl(228.5, 77.2%, 51.5%)" stroke-width="1.5"></path><path d="M1415.08 550.35L1388.14 346.97" stroke="hsl(228.5, 77.2%, 51.5%)" stroke-width="1.5"></path><path d="M1415.08 550.35L1301.36 371.12" stroke="hsl(228.5, 77.2%, 51.5%)" stroke-width="1.5"></path><path d="M-67.71 488.85L-67.71 488.85" stroke="hsl(228.5, 77.2%, 51.5%)" stroke-width="1.5"></path><path d="M-67.71 488.85L-88.41 683.2" stroke="hsl(228.5, 77.2%, 51.5%)" stroke-width="1.5"></path><path d="M-67.71 488.85L63.11 664.82" stroke="hsl(228.5, 77.2%, 51.5%)" stroke-width="1.5"></path><path d="M-67.71 488.85L219.86 676.32" stroke="hsl(228.5, 77.2%, 51.5%)" stroke-width="1.5"></path><path d="M-67.71 488.85L401.56 553.86" stroke="hsl(228.5, 77.2%, 51.5%)" stroke-width="1.5"></path><path d="M-67.71 488.85L399.09 637.8" stroke="hsl(228.5, 77.2%, 51.5%)" stroke-width="1.5"></path><path d="M-67.71 488.85L514.16 523.69" stroke="hsl(228.5, 77.2%, 51.5%)" stroke-width="1.5"></path><path d="M-88.41 683.2L-88.41 683.2" stroke="hsl(228.5, 77.2%, 51.5%)" stroke-width="1.5"></path><path d="M-88.41 683.2L63.11 664.82" stroke="hsl(228.5, 77.2%, 51.5%)" stroke-width="1.5"></path><path d="M-88.41 683.2L219.86 676.32" stroke="hsl(228.5, 77.2%, 51.5%)" stroke-width="1.5"></path><path d="M63.11 664.82L63.11 664.82" stroke="hsl(228.5, 77.2%, 51.5%)" stroke-width="1.5"></path><path d="M63.11 664.82L219.86 676.32" stroke="hsl(228.5, 77.2%, 51.5%)" stroke-width="1.5"></path><path d="M219.86 676.32L219.86 676.32" stroke="hsl(228.5, 77.2%, 51.5%)" stroke-width="1.5"></path><path d="M219.86 676.32L399.09 637.8" stroke="hsl(228.5, 77.2%, 51.5%)" stroke-width="1.5"></path><path d="M219.86 676.32L401.56 553.86" stroke="hsl(228.5, 77.2%, 51.5%)" stroke-width="1.5"></path><path d="M401.56 553.86L401.56 553.86" stroke="hsl(228.5, 77.2%, 51.5%)" stroke-width="1.5"></path><path d="M401.56 553.86L399.09 637.8" stroke="hsl(228.5, 77.2%, 51.5%)" stroke-width="1.5"></path><path d="M399.09 637.8L399.09 637.8" stroke="hsl(228.5, 77.2%, 51.5%)" stroke-width="1.5"></path><path d="M698.86 544.48L698.86 544.48" stroke="hsl(228.5, 77.2%, 51.5%)" stroke-width="1.5"></path><path d="M698.86 544.48L807.54 553.13" stroke="hsl(228.5, 77.2%, 51.5%)" stroke-width="1.5"></path><path d="M698.86 544.48L679.62 663.23" stroke="hsl(228.5, 77.2%, 51.5%)" stroke-width="1.5"></path><path d="M698.86 544.48L820.7 666.59" stroke="hsl(228.5, 77.2%, 51.5%)" stroke-width="1.5"></path><path d="M679.62 663.23L679.62 663.23" stroke="hsl(228.5, 77.2%, 51.5%)" stroke-width="1.5"></path><path d="M834.98 393.2L834.98 393.2" stroke="hsl(228.5, 77.2%, 51.5%)" stroke-width="1.5"></path><path d="M834.98 393.2L948.22 393.69" stroke="hsl(228.5, 77.2%, 51.5%)" stroke-width="1.5"></path><path d="M834.98 393.2L807.54 553.13" stroke="hsl(228.5, 77.2%, 51.5%)" stroke-width="1.5"></path><path d="M807.54 553.13L807.54 553.13" stroke="hsl(228.5, 77.2%, 51.5%)" stroke-width="1.5"></path><path d="M807.54 553.13L820.7 666.59" stroke="hsl(228.5, 77.2%, 51.5%)" stroke-width="1.5"></path><path d="M807.54 553.13L679.62 663.23" stroke="hsl(228.5, 77.2%, 51.5%)" stroke-width="1.5"></path><path d="M807.54 553.13L1000.75 554.99" stroke="hsl(228.5, 77.2%, 51.5%)" stroke-width="1.5"></path><path d="M807.54 553.13L984.29 647.51" stroke="hsl(228.5, 77.2%, 51.5%)" stroke-width="1.5"></path><path d="M820.7 666.59L820.7 666.59" stroke="hsl(228.5, 77.2%, 51.5%)" stroke-width="1.5"></path><path d="M820.7 666.59L679.62 663.23" stroke="hsl(228.5, 77.2%, 51.5%)" stroke-width="1.5"></path><path d="M820.7 666.59L984.29 647.51" stroke="hsl(228.5, 77.2%, 51.5%)" stroke-width="1.5"></path><path d="M820.7 666.59L1000.75 554.99" stroke="hsl(228.5, 77.2%, 51.5%)" stroke-width="1.5"></path><path d="M820.7 666.59L549.71 655.33" stroke="hsl(228.5, 77.2%, 51.5%)" stroke-width="1.5"></path><path d="M948.22 393.69L948.22 393.69" stroke="hsl(228.5, 77.2%, 51.5%)" stroke-width="1.5"></path><path d="M948.22 393.69L1000.75 554.99" stroke="hsl(228.5, 77.2%, 51.5%)" stroke-width="1.5"></path><path d="M948.22 393.69L1144.92 384.92" stroke="hsl(228.5, 77.2%, 51.5%)" stroke-width="1.5"></path><path d="M948.22 393.69L1121.93 495.57" stroke="hsl(228.5, 77.2%, 51.5%)" stroke-width="1.5"></path><path d="M948.22 393.69L807.54 553.13" stroke="hsl(228.5, 77.2%, 51.5%)" stroke-width="1.5"></path><path d="M1000.75 554.99L1000.75 554.99" stroke="hsl(228.5, 77.2%, 51.5%)" stroke-width="1.5"></path><path d="M1000.75 554.99L984.29 647.51" stroke="hsl(228.5, 77.2%, 51.5%)" stroke-width="1.5"></path><path d="M1000.75 554.99L1121.93 495.57" stroke="hsl(228.5, 77.2%, 51.5%)" stroke-width="1.5"></path><path d="M984.29 647.51L984.29 647.51" stroke="hsl(228.5, 77.2%, 51.5%)" stroke-width="1.5"></path><path d="M984.29 647.51L1125.29 711.84" stroke="hsl(228.5, 77.2%, 51.5%)" stroke-width="1.5"></path><path d="M1161.36 69.35L1161.36 69.35" stroke="hsl(228.5, 77.2%, 51.5%)" stroke-width="1.5"></path><path d="M1161.36 69.35L1262.62 -71.73" stroke="hsl(228.5, 77.2%, 51.5%)" stroke-width="1.5"></path><path d="M1161.36 69.35L1155.56 258.99" stroke="hsl(228.5, 77.2%, 51.5%)" stroke-width="1.5"></path><path d="M1161.36 69.35L1247.25 239.52" stroke="hsl(228.5, 77.2%, 51.5%)" stroke-width="1.5"></path><path d="M1144.92 384.92L1144.92 384.92" stroke="hsl(228.5, 77.2%, 51.5%)" stroke-width="1.5"></path><path d="M1144.92 384.92L1121.93 495.57" stroke="hsl(228.5, 77.2%, 51.5%)" stroke-width="1.5"></path><path d="M1144.92 384.92L1301.36 371.12" stroke="hsl(228.5, 77.2%, 51.5%)" stroke-width="1.5"></path><path d="M1144.92 384.92L1247.25 239.52" stroke="hsl(228.5, 77.2%, 51.5%)" stroke-width="1.5"></path><path d="M1144.92 384.92L1272.78 538.09" stroke="hsl(228.5, 77.2%, 51.5%)" stroke-width="1.5"></path><path d="M1121.93 495.57L1121.93 495.57" stroke="hsl(228.5, 77.2%, 51.5%)" stroke-width="1.5"></path><path d="M1121.93 495.57L1272.78 538.09" stroke="hsl(228.5, 77.2%, 51.5%)" stroke-width="1.5"></path><path d="M1125.29 711.84L1125.29 711.84" stroke="hsl(228.5, 77.2%, 51.5%)" stroke-width="1.5"></path><path d="M1125.29 711.84L1287.17 698.07" stroke="hsl(228.5, 77.2%, 51.5%)" stroke-width="1.5"></path><path d="M1125.29 711.84L1000.75 554.99" stroke="hsl(228.5, 77.2%, 51.5%)" stroke-width="1.5"></path><path d="M1262.62 -71.73L1262.62 -71.73" stroke="hsl(228.5, 77.2%, 51.5%)" stroke-width="1.5"></path><path d="M1262.62 -71.73L1423.23 -68.41" stroke="hsl(228.5, 77.2%, 51.5%)" stroke-width="1.5"></path><path d="M1262.62 -71.73L1404.01 40.22" stroke="hsl(228.5, 77.2%, 51.5%)" stroke-width="1.5"></path><path d="M1262.62 -71.73L1247.25 239.52" stroke="hsl(228.5, 77.2%, 51.5%)" stroke-width="1.5"></path><path d="M1262.62 -71.73L1558.01 43.51" stroke="hsl(228.5, 77.2%, 51.5%)" stroke-width="1.5"></path><path d="M1262.62 -71.73L1596.45 -76.5" stroke="hsl(228.5, 77.2%, 51.5%)" stroke-width="1.5"></path><path d="M1247.25 239.52L1247.25 239.52" stroke="hsl(228.5, 77.2%, 51.5%)" stroke-width="1.5"></path><path d="M1247.25 239.52L1301.36 371.12" stroke="hsl(228.5, 77.2%, 51.5%)" stroke-width="1.5"></path><path d="M1247.25 239.52L1420.18 244.67" stroke="hsl(228.5, 77.2%, 51.5%)" stroke-width="1.5"></path><path d="M1301.36 371.12L1301.36 371.12" stroke="hsl(228.5, 77.2%, 51.5%)" stroke-width="1.5"></path><path d="M1301.36 371.12L1388.14 346.97" stroke="hsl(228.5, 77.2%, 51.5%)" stroke-width="1.5"></path><path d="M1301.36 371.12L1272.78 538.09" stroke="hsl(228.5, 77.2%, 51.5%)" stroke-width="1.5"></path><path d="M1301.36 371.12L1420.18 244.67" stroke="hsl(228.5, 77.2%, 51.5%)" stroke-width="1.5"></path><path d="M1272.78 538.09L1272.78 538.09" stroke="hsl(228.5, 77.2%, 51.5%)" stroke-width="1.5"></path><path d="M1272.78 538.09L1287.17 698.07" stroke="hsl(228.5, 77.2%, 51.5%)" stroke-width="1.5"></path><path d="M1287.17 698.07L1287.17 698.07" stroke="hsl(228.5, 77.2%, 51.5%)" stroke-width="1.5"></path><path d="M1287.17 698.07L1459.19 657.51" stroke="hsl(228.5, 77.2%, 51.5%)" stroke-width="1.5"></path><path d="M1287.17 698.07L1121.93 495.57" stroke="hsl(228.5, 77.2%, 51.5%)" stroke-width="1.5"></path><path d="M1287.17 698.07L984.29 647.51" stroke="hsl(228.5, 77.2%, 51.5%)" stroke-width="1.5"></path><path d="M1423.23 -68.41L1423.23 -68.41" stroke="hsl(228.5, 77.2%, 51.5%)" stroke-width="1.5"></path><path d="M1423.23 -68.41L1404.01 40.22" stroke="hsl(228.5, 77.2%, 51.5%)" stroke-width="1.5"></path><path d="M1423.23 -68.41L1596.45 -76.5" stroke="hsl(228.5, 77.2%, 51.5%)" stroke-width="1.5"></path><path d="M1404.01 40.22L1404.01 40.22" stroke="hsl(228.5, 77.2%, 51.5%)" stroke-width="1.5"></path><path d="M1404.01 40.22L1558.01 43.51" stroke="hsl(228.5, 77.2%, 51.5%)" stroke-width="1.5"></path><path d="M1404.01 40.22L1420.18 244.67" stroke="hsl(228.5, 77.2%, 51.5%)" stroke-width="1.5"></path><path d="M1420.18 244.67L1420.18 244.67" stroke="hsl(228.5, 77.2%, 51.5%)" stroke-width="1.5"></path><path d="M1420.18 244.67L1388.14 346.97" stroke="hsl(228.5, 77.2%, 51.5%)" stroke-width="1.5"></path><path d="M1420.18 244.67L1566.19 217.64" stroke="hsl(228.5, 77.2%, 51.5%)" stroke-width="1.5"></path><path d="M1388.14 346.97L1388.14 346.97" stroke="hsl(228.5, 77.2%, 51.5%)" stroke-width="1.5"></path><path d="M1459.19 657.51L1459.19 657.51" stroke="hsl(228.5, 77.2%, 51.5%)" stroke-width="1.5"></path><path d="M1459.19 657.51L1610.96 657.97" stroke="hsl(228.5, 77.2%, 51.5%)" stroke-width="1.5"></path><path d="M1459.19 657.51L1579.88 514.69" stroke="hsl(228.5, 77.2%, 51.5%)" stroke-width="1.5"></path><path d="M1596.45 -76.5L1596.45 -76.5" stroke="hsl(228.5, 77.2%, 51.5%)" stroke-width="1.5"></path><path d="M1596.45 -76.5L1558.01 43.51" stroke="hsl(228.5, 77.2%, 51.5%)" stroke-width="1.5"></path><path d="M1558.01 43.51L1558.01 43.51" stroke="hsl(228.5, 77.2%, 51.5%)" stroke-width="1.5"></path><path d="M1558.01 43.51L1566.19 217.64" stroke="hsl(228.5, 77.2%, 51.5%)" stroke-width="1.5"></path><path d="M1558.01 43.51L1423.23 -68.41" stroke="hsl(228.5, 77.2%, 51.5%)" stroke-width="1.5"></path><path d="M1558.01 43.51L1420.18 244.67" stroke="hsl(228.5, 77.2%, 51.5%)" stroke-width="1.5"></path><path d="M1558.01 43.51L1575.88 350.04" stroke="hsl(228.5, 77.2%, 51.5%)" stroke-width="1.5"></path><path d="M1566.19 217.64L1566.19 217.64" stroke="hsl(228.5, 77.2%, 51.5%)" stroke-width="1.5"></path><path d="M1566.19 217.64L1575.88 350.04" stroke="hsl(228.5, 77.2%, 51.5%)" stroke-width="1.5"></path><path d="M1566.19 217.64L1388.14 346.97" stroke="hsl(228.5, 77.2%, 51.5%)" stroke-width="1.5"></path><path d="M1566.19 217.64L1404.01 40.22" stroke="hsl(228.5, 77.2%, 51.5%)" stroke-width="1.5"></path><path d="M1575.88 350.04L1575.88 350.04" stroke="hsl(228.5, 77.2%, 51.5%)" stroke-width="1.5"></path><path d="M1575.88 350.04L1579.88 514.69" stroke="hsl(228.5, 77.2%, 51.5%)" stroke-width="1.5"></path><path d="M1575.88 350.04L1388.14 346.97" stroke="hsl(228.5, 77.2%, 51.5%)" stroke-width="1.5"></path><path d="M1575.88 350.04L1420.18 244.67" stroke="hsl(228.5, 77.2%, 51.5%)" stroke-width="1.5"></path><path d="M1575.88 350.04L1415.08 550.35" stroke="hsl(228.5, 77.2%, 51.5%)" stroke-width="1.5"></path><path d="M1575.88 350.04L1301.36 371.12" stroke="hsl(228.5, 77.2%, 51.5%)" stroke-width="1.5"></path><path d="M1579.88 514.69L1579.88 514.69" stroke="hsl(228.5, 77.2%, 51.5%)" stroke-width="1.5"></path><path d="M1579.88 514.69L1610.96 657.97" stroke="hsl(228.5, 77.2%, 51.5%)" stroke-width="1.5"></path><path d="M1610.96 657.97L1610.96 657.97" stroke="hsl(228.5, 77.2%, 51.5%)" stroke-width="1.5"></path><path d="M1610.96 657.97L1415.08 550.35" stroke="hsl(228.5, 77.2%, 51.5%)" stroke-width="1.5"></path><circle r="25" cx="514.16" cy="523.69" fill="url(&quot;#SvgjsRadialGradient1007&quot;)"></circle><circle r="25" cx="549.71" cy="655.33" fill="url(&quot;#SvgjsRadialGradient1007&quot;)"></circle><circle r="25" cx="1155.56" cy="258.99" fill="url(&quot;#SvgjsRadialGradient1007&quot;)"></circle><circle r="25" cx="1415.08" cy="550.35" fill="url(&quot;#SvgjsRadialGradient1007&quot;)"></circle><circle r="5" cx="-67.71" cy="488.85" fill="#8b9ad9"></circle><circle r="5" cx="-88.41" cy="683.2" fill="#8b9ad9"></circle><circle r="5" cx="63.11" cy="664.82" fill="#8b9ad9"></circle><circle r="5" cx="219.86" cy="676.32" fill="#8b9ad9"></circle><circle r="5" cx="401.56" cy="553.86" fill="#8b9ad9"></circle><circle r="5" cx="399.09" cy="637.8" fill="#8b9ad9"></circle><circle r="5" cx="698.86" cy="544.48" fill="#8b9ad9"></circle><circle r="5" cx="679.62" cy="663.23" fill="#8b9ad9"></circle><circle r="5" cx="834.98" cy="393.2" fill="#8b9ad9"></circle><circle r="5" cx="807.54" cy="553.13" fill="#8b9ad9"></circle><circle r="5" cx="820.7" cy="666.59" fill="#8b9ad9"></circle><circle r="5" cx="948.22" cy="393.69" fill="#8b9ad9"></circle><circle r="5" cx="1000.75" cy="554.99" fill="#8b9ad9"></circle><circle r="5" cx="984.29" cy="647.51" fill="#8b9ad9"></circle><circle r="5" cx="1161.36" cy="69.35" fill="#8b9ad9"></circle><circle r="5" cx="1144.92" cy="384.92" fill="#8b9ad9"></circle><circle r="5" cx="1121.93" cy="495.57" fill="#8b9ad9"></circle><circle r="5" cx="1125.29" cy="711.84" fill="#8b9ad9"></circle><circle r="5" cx="1262.62" cy="-71.73" fill="#8b9ad9"></circle><circle r="5" cx="1247.25" cy="239.52" fill="#8b9ad9"></circle><circle r="5" cx="1301.36" cy="371.12" fill="#8b9ad9"></circle><circle r="5" cx="1272.78" cy="538.09" fill="#8b9ad9"></circle><circle r="5" cx="1287.17" cy="698.07" fill="#8b9ad9"></circle><circle r="5" cx="1423.23" cy="-68.41" fill="#8b9ad9"></circle><circle r="5" cx="1404.01" cy="40.22" fill="#8b9ad9"></circle><circle r="5" cx="1420.18" cy="244.67" fill="#8b9ad9"></circle><circle r="5" cx="1388.14" cy="346.97" fill="#8b9ad9"></circle><circle r="5" cx="1459.19" cy="657.51" fill="#8b9ad9"></circle><circle r="5" cx="1596.45" cy="-76.5" fill="#8b9ad9"></circle><circle r="5" cx="1558.01" cy="43.51" fill="#8b9ad9"></circle><circle r="5" cx="1566.19" cy="217.64" fill="#8b9ad9"></circle><circle r="5" cx="1575.88" cy="350.04" fill="#8b9ad9"></circle><circle r="5" cx="1579.88" cy="514.69" fill="#8b9ad9"></circle><circle r="5" cx="1610.96" cy="657.97" fill="#8b9ad9"></circle></g><defs><mask id="SvgjsMask1005"><rect width="1440" height="560" fill="#ffffff"></rect></mask><linearGradient x1="15.28%" y1="-39.29%" x2="84.72%" y2="139.29%" gradientUnits="userSpaceOnUse" id="SvgjsLinearGradient1006"><stop stop-color="#0e2a47" offset="0"></stop><stop stop-color="#00459e" offset="1"></stop></linearGradient><radialGradient id="SvgjsRadialGradient1007"><stop stop-color="#ffffff" offset="0.1"></stop><stop stop-color="#1735b3" offset="0.2"></stop><stop stop-color="rgba(23, 53, 179, 0)" offset="1"></stop></radialGradient></defs></svg>